<svg xmlns="http://www.w3.org/2000/svg" xmlns:xlink="http://www.w3.org/1999/xlink" width="336" height="298.874" viewBox="0 0 336 298.874">
  <defs>
    <clipPath id="clip-path">
      <rect id="長方形_151" data-name="長方形 151" width="336" height="298.874" fill="none"/>
    </clipPath>
  </defs>
  <g id="logo" clip-path="url(#clip-path)">
    <path id="パス_9966" data-name="パス 9966" d="M97.467,204.582H77.232v-3.967l11.5-13.449c2.184-2.515,3.4-4.694,3.4-7.015a4.758,4.758,0,0,0-9.51,0H77.474c0-5.661,4.56-9.385,10.093-9.385,5.724,0,10.14,3.869,10.14,9.482,0,4.209-2.911,7.5-5.045,10.062l-7.91,9.434H97.467Z" transform="translate(42.806 93.857)" fill="#1a1311"/>
    <path id="パス_9967" data-name="パス 9967" d="M103.758,205.017c-5.581,0-10.528-3.29-10.528-10.209V181.021c0-7.111,4.947-10.255,10.528-10.255s10.528,3.144,10.528,10.207v13.835c0,6.919-4.949,10.209-10.528,10.209m0-29.365c-3.057,0-4.95,2.08-4.95,5.659v13.161c0,3.578,1.893,5.659,4.95,5.659,3.009,0,4.9-2.081,4.9-5.659V181.311c0-3.58-1.892-5.659-4.9-5.659" transform="translate(51.672 93.857)" fill="#1a1311"/>
    <path id="パス_9968" data-name="パス 9968" d="M129.6,204.582H109.37v-3.967l11.5-13.449c2.184-2.515,3.4-4.694,3.4-7.015a4.758,4.758,0,0,0-9.51,0h-5.143c0-5.661,4.56-9.385,10.093-9.385,5.724,0,10.14,3.869,10.14,9.482,0,4.209-2.911,7.5-5.045,10.062l-7.91,9.434H129.6Z" transform="translate(60.618 93.857)" fill="#1a1311"/>
    <path id="パス_9969" data-name="パス 9969" d="M142.4,171.047,131.675,194.51h7.86v-9.1h5.628v9.1h3.057V199.4h-3.057v5.032h-5.628V199.4h-14.7v-3.967l11.6-24.382Z" transform="translate(69.188 94.011)" fill="#1a1311"/>
    <path id="パス_9970" data-name="パス 9970" d="M207.719,113.125V21.8a35.958,35.958,0,0,1,1.388-9.806c1.484-4.3,3.1-9.533-.26-10.148a135.256,135.256,0,0,0-25.3-1.79c-1.843.077-3.693.333-3.693,2.51,0,1.506.671,6.432.671,10.21v95.435c0,9.419-2.089,19.383-19.887,17.608-15.12-1.508-20.026-4.791-28.611-7.644-2.875-.955-5.477-.409-6.845,2.458s-3.7,8.841-5.065,12.557-.877,6.716,2.053,8.19a82.025,82.025,0,0,0,23.957,8.19c12.375,2.284,27.283,2.7,37.148-.271,17.019-5.135,24.445-19.719,24.445-36.17" transform="translate(66.17 0)" fill="#dc000c"/>
    <path id="パス_9971" data-name="パス 9971" d="M234.544,78.557c-7.555,0-15.107.5-22.495.5,0,0-21.609.225-26,0-3.018-.153-4.055,1.226-4.813,5.627-.786,4.554-3.539,9.649-5.819,13.255-2.495,3.944-.639,5.445,2.83,5.331,4.8-.156,33.8-.279,33.8-.279,7.555,0,14.939.5,22.495.5,4.532,0,4.869-2.01,4.869-7.7V86.09c0-5.692-.337-7.533-4.869-7.533" transform="translate(96.588 43.177)" fill="#1a1311"/>
    <path id="パス_9972" data-name="パス 9972" d="M215.63,44.065a16.5,16.5,0,1,1-16.5-16.454,16.479,16.479,0,0,1,16.5,16.454m-16.5-5.89a5.89,5.89,0,1,0,5.908,5.89,5.9,5.9,0,0,0-5.908-5.89" transform="translate(101.217 15.176)" fill="#dc000c"/>
    <path id="パス_9973" data-name="パス 9973" d="M68.788,27c0-5.692-.336-11.382-.336-17.072,0-6.36,2.518-8.7,8.729-8.7,5.036,0,8.273.5,13.309.5h10.239c4.7,0,5.693-.5,9.723-.5,8.729,0,14.268,6.025,14.268,11.046,0,6.192-10.575,32.973-13.429,40a8.51,8.51,0,0,0-1.007,3.347,3.892,3.892,0,0,0,1.173,2.51c7.723,11.047,12.927,27.283,12.927,40.84,0,7.531-.037,12.825-6.374,20.071-3.559,4.072-9.391,6.039-15.434,6.039-5.371,0-8.059-.669-9.737-4.351a1.256,1.256,0,0,0-1.175-1c-1.007,0-1.007.837-1.007,1.674,0,7.7.5,15.4.5,23.1,0,4.186-1.511,4.686-6.714,4.686H75.334c-5.2,0-7.05-.333-7.05-4.519,0-8.033.5-16.235.5-24.269ZM92.5,22.978a1.86,1.86,0,0,0-1.846,1.843V41.892c0,1,.168,1.674,1.175,1.674,1.512,0,1.846-2.51,2.182-3.683.671-2.678,3.359-12.385,3.359-14.728,0-1.674-.839-2.177-2.352-2.177ZM90.657,98.966c0,.837.336,1.172,1.007,1.172.336,0,.5-.167.839-.335a3.391,3.391,0,0,1,1.846-.5c1.175,0,3.189.333,4.029.333,2.016,0,2.518-1.674,2.518-7.364,0-9.539-6.882-29.624-9.232-29.624-.839,0-1.007.669-1.007,1.506Z" transform="translate(37.846 0.671)" fill="#1a1311"/>
    <path id="パス_9974" data-name="パス 9974" d="M38.949,74.68c2.768-.006,6.912-.122,8.749-.122s4.862,0,8.071.048c2.5.039,3.152-1,3.152-3.886V62.767c0-3.014-.732-4.4-3.27-4.271-2.9.152-6.158.152-7.953.152s-6.175,0-8.749-.085c-2.928-.1-3.147,1.3-3.147,4.976v6.274c0,3.677.218,4.875,3.147,4.867" transform="translate(19.843 32.146)" fill="#1a1311"/>
    <path id="パス_9975" data-name="パス 9975" d="M7.193,52.872c2.768-.006,3.318-.122,5.155-.122s4.681,0,7.891.048c2.5.039,3.152-1,3.152-3.886V40.959c0-3.014-.732-4.4-3.27-4.271-2.9.152-5.978.152-7.773.152s-2.582,0-5.155-.085c-2.928-.1-3.147,1.3-3.147,4.976V48c0,3.677.218,4.875,3.147,4.867" transform="translate(2.242 20.16)" fill="#1a1311"/>
    <path id="パス_9976" data-name="パス 9976" d="M7.193,17.311c2.768-.006,3.318-.122,5.155-.122s4.681,0,7.891.048c2.5.039,3.152-1,3.152-3.886V5.4c0-3.014-.732-4.4-3.27-4.271-2.9.152-5.978.152-7.773.152s-2.582,0-5.155-.085c-2.928-.1-3.147,1.3-3.147,4.976v6.274c0,3.677.218,4.875,3.147,4.867" transform="translate(2.242 0.615)" fill="#1a1311"/>
    <path id="パス_9977" data-name="パス 9977" d="M3.147,35.038c2.768-.006,6.658-.122,8.5-.122s7.631,0,10.839.048c2.5.039,3.152-1,3.152-3.886V23.125c0-3.014-.73-4.4-3.269-4.271-2.9.152-8.928.152-10.723.152s-5.922,0-8.5-.085C.219,18.823,0,20.218,0,23.9v6.274c0,3.677.218,4.875,3.147,4.867" transform="translate(0 10.358)" fill="#1a1311"/>
    <path id="パス_9978" data-name="パス 9978" d="M84.212,61.761c.159-2.744-1.062-3.849-3.146-3.849H71.977c-2.167,0-3.095,1.433-2.969,3.933.3,5.985,0,24.991,0,24.991,0,10.926-5.628,16.538-14.908,16.538-.068,0-.131-.008-.2-.008s-.131.008-.2.008c-9.28,0-14.908-5.611-14.908-16.538,0,0-.3-19.006,0-24.991.126-2.5-.8-3.933-2.97-3.933H26.739c-2.084,0-3.306,1.1-3.146,3.849.393,6.817,0,24.484,0,24.484,0,20.869,11.747,31.106,30.309,31.106s30.309-10.237,30.309-31.106c0,0-.395-17.667,0-24.484" transform="translate(13.069 31.83)" fill="#dc000c"/>
    <path id="パス_9979" data-name="パス 9979" d="M87.948,28.536c-2.68.186-24.018.391-24.018.391-4.882,0-9.955-.324-14.838-.324-2.928,0-3.146,1.3-3.146,4.976v6.274c0,3.677.218,4.867,3.146,4.867,2.855,0,5.8-.108,8.721-.2,2.611-.09,2.633,1.348,2.633,2.408v5.634c0,1.337.121,4.069-2.185,4.069H42.633c-2.014,0-2.661-.781-2.742-2.678s0-12.532,0-16.06.159-16.914.331-18.5a2.259,2.259,0,0,1,2.532-2.176h15.5c2.4,0,2.229,2.676,2.185,4.189-.073,2.458.671,3.436,2.906,3.436h14.3c3.049,0,3.342-2.018,3.455-3.781s-.014-6.332-.014-10.516C81.094,5.19,80.253,1,74.044,1c-4.532,0-9.066.336-13.6.336H35.08c-5.375,0-8.817-.315-11-.336C20.963.975,19.1,2.345,19.1,7.7c0,0-.1,19.854-.1,26.4s-.737,31.618-.737,31.618c-.065,4.884.915,7.1,4.566,7.015,2.585-.062,5.7-.093,7.038-.093,2.352,0,12.114-.167,15.7-.167H58.253a2.049,2.049,0,0,1,2.319,1.779c.309,1.3,1.94,1.568,5.252,1.568h7.21c7.052,0,8.227-.5,8.227-5.69,0-4.688-.336-10.545-.336-16.068V47c0-1.416.86-2.565,3.3-2.484,1.8.034,3.2.079,3.845.135,2.493.22,3.152-1,3.152-3.886V32.807c0-3.014-.734-4.447-3.27-4.271" transform="translate(10.122 0.552)" fill="#dc000c"/>
    <path id="パス_9980" data-name="パス 9980" d="M46.692,52.33c.451-1.855-.92-3.409-3.845-3.409H31.265c-2.212,0-3.71.883-4.066,2.875a62.136,62.136,0,0,1-2.045,7.4c-4.7,13.691-10.146,22.507-20.48,33.59-1.442,1.547-2.513,3.2-2.184,5.176.469,2.8,8.928,8.647,12.436,9a5.939,5.939,0,0,0,4.845-1.689c6.122-5.933,11.4-12.174,16.884-23.855C41.495,71.1,45.677,56.5,46.692,52.33" transform="translate(1.347 26.888)" fill="#1a1311"/>
    <path id="パス_9981" data-name="パス 9981" d="M39.809,109.522c-20.63,0-35.625,15.523-35.625,34.471v.191c0,18.949,14.8,34.281,35.432,34.281s35.625-15.523,35.625-34.471V143.8c0-18.949-14.8-34.281-35.432-34.281m20.056,34.662c0,11.427-8.214,20.759-20.056,20.759S19.56,155.42,19.56,143.993V143.8c0-11.427,8.214-20.759,20.056-20.759s20.249,9.522,20.249,20.949Z" transform="translate(2.319 60.196)" fill="#1a1311"/>
    <path id="パス_9982" data-name="パス 9982" d="M140.095,109.522c-20.63,0-35.625,15.523-35.625,34.471v.191c0,18.949,14.8,34.281,35.432,34.281s35.625-15.523,35.625-34.471V143.8c0-18.949-14.8-34.281-35.432-34.281m20.056,34.662c0,11.427-8.214,20.759-20.056,20.759s-20.249-9.522-20.249-20.949V143.8c0-11.427,8.214-20.759,20.056-20.759s20.249,9.522,20.249,20.949Z" transform="translate(57.902 60.196)" fill="#1a1311"/>
    <path id="パス_9983" data-name="パス 9983" d="M215.442,110.26H206.2a2.736,2.736,0,0,0-2.732,2.724v61.207a2.736,2.736,0,0,0,2.732,2.724h9.245a2.736,2.736,0,0,0,2.732-2.724V112.984a2.736,2.736,0,0,0-2.732-2.724" transform="translate(112.77 60.601)" fill="#1a1311"/>
    <path id="パス_9984" data-name="パス 9984" d="M84.393,110.26H61.052a2.736,2.736,0,0,0-2.731,2.724v61.207a2.736,2.736,0,0,0,2.731,2.724H84.393c21.012,0,35.529-14.568,35.529-33.328V143.4c0-18.758-14.517-33.137-35.529-33.137m20.152,33.518c0,11.808-8.118,19.9-20.152,19.9H75.761a2.736,2.736,0,0,1-2.732-2.724V126.22a2.736,2.736,0,0,1,2.732-2.724h8.632c12.035,0,20.152,8.284,20.152,20.092Z" transform="translate(32.324 60.601)" fill="#1a1311"/>
    <path id="パス_9985" data-name="パス 9985" d="M207,163.232h0l-1.548-2.256-3.853-5.619c-.849-1.237-.715-2.569,1.113-3.392l.008-.016c7.025-3.505,11.661-9.911,11.661-19.5v-.191c0-13.711-9.454-22-25.213-22h-27.83a2.735,2.735,0,0,0-2.732,2.723v61.208a2.736,2.736,0,0,0,2.732,2.724h9.245a2.736,2.736,0,0,0,2.731-2.724V158.309a2.736,2.736,0,0,1,2.732-2.724h6.093a4.565,4.565,0,0,1,4.252,2.264l11.285,16.8a5.74,5.74,0,0,0,4.252,2.264h11.727c1.5,0,2.038-1.012,1.189-2.249Zm-27.593-20.6h-3.362a2.736,2.736,0,0,1-2.732-2.724V126.22a2.736,2.736,0,0,1,2.732-2.724h11.881c7.164,0,11.556,3.237,11.556,9.522v.191c0,5.617-4.106,9.426-11.27,9.426h-8.8Z" transform="translate(87.907 60.601)" fill="#1a1311"/>
    <rect id="長方形_149" data-name="長方形 149" width="78.853" height="1.55" transform="translate(23.601 280.695)" fill="#1a1311"/>
    <rect id="長方形_150" data-name="長方形 150" width="78.853" height="1.55" transform="translate(234.993 280.695)" fill="#1a1311"/>
  </g>
</svg>
