<svg xmlns="http://www.w3.org/2000/svg" xmlns:xlink="http://www.w3.org/1999/xlink" width="39" height="39" viewBox="0 0 39 39">
  <defs>
    <clipPath id="clip-path">
      <rect id="長方形_152" data-name="長方形 152" width="39" height="39" transform="translate(0 0)" fill="none"/>
    </clipPath>
  </defs>
  <g id="x_icon" transform="translate(0 0.001)">
    <g id="グループ_3354" data-name="グループ 3354" transform="translate(0 -0.001)" clip-path="url(#clip-path)">
      <path id="パス_9987" data-name="パス 9987" d="M19.5,0A19.5,19.5,0,1,0,39,19.5,19.5,19.5,0,0,0,19.5,0m5.059,31.194L18.641,22.58l-7.409,8.613H9.317l8.474-9.85L9.317,9.01H15.78l5.6,8.156L28.4,9.01h1.915L22.235,18.4h0l8.788,12.79Z" transform="translate(0 0.002)"/>
      <path id="パス_9988" data-name="パス 9988" d="M667.576,585.813l-5.513-7.886h-2.941l6.832,9.772.859,1.228h0l5.848,8.365H675.6l-7.167-10.251Z" transform="translate(-647.2 -567.473)" fill="#231815"/>
    </g>
  </g>
</svg>
